# xmcd
#
# Track frame offsets:
#	150
#	15495
#	27072
#	40645
#	52262
#	63322
#	75192
#	87547
#	102122
#	115247
#	128495
#	140410
#	152105
#	163102
#	175142
#	187455
#	200285
#	213727
#	225312
#	238215
#	250962
#	264230
#	275797
#	286270
#	298257
#	311182
#	323452
#
# Disc length: 4462 seconds
# Revision: 0
# Processed by: cddbd v1.5.2PL0 Copyright (c) Steve Scherf et al.
# Submitted via: dBpowerAMP V12.0
#
DISCID=85116c1b
DTITLE=B. B. KING - THE COMPLETE RPM - KENT RECORDING BOX, CD4
DYEAR=2015
DGENRE=Blues
TTITLE0=Can't We Talk It Over (aka Come Back Baby)
TTITLE1=Sixteen Tons
TTITLE2=Crying Won't Help You
TTITLE3=Did You Ever Love A Woman
TTITLE4=Let's Do The Boogie
TTITLE5=Dark Is The Night Pt. 1
TTITLE6=Dark Is The Night Pt. 2
TTITLE7=Sweet Little Angel
TTITLE8=Bad Luck
TTITLE9=On My Word Of Honor
TTITLE10=Bim Bam
TTITLE11=Early In The Morning (aka Early Every Morning)
TTITLE12=You Don't Know
TTITLE13=How Do I Love You
TTITLE14=You Can't Fool My Heart
TTITLE15=I Want To Get Married
TTITLE16=Troubles Troubles Troubles
TTITLE17=(I'm Gonna) Quit My Baby
TTITLE18=Be Careful With A Fool
TTITLE19=I Wonder
TTITLE20=I Need You So Bad
TTITLE21=The Key To My Kingdom
TTITLE22=My Heart Belongs To Only You
TTITLE23=You Know I Go For You
TTITLE24=Why Do Everything Happen To Me
TTITLE25=Don't Look Now, But I've Got The Blues
TTITLE26=Days Of Old
EXTD=
EXTT0=
EXTT1=
EXTT2=
EXTT3=
EXTT4=
EXTT5=
EXTT6=
EXTT7=
EXTT8=
EXTT9=
EXTT10=
EXTT11=
EXTT12=
EXTT13=
EXTT14=
EXTT15=
EXTT16=
EXTT17=
EXTT18=
EXTT19=
EXTT20=
EXTT21=
EXTT22=
EXTT23=
EXTT24=
EXTT25=
EXTT26=
PLAYORDER=
